# xmcd
#
# Track frame offsets: 
#        150
#        10789
#        32478
#        56613
#        78281
#        93901
#        112874
#        128228
#        141013
#        154451
#        168041
#        187198
#        199841
#        218976
#        229289
#        243882
#        257276
#        279861
#        298411
#
# Disc length: 4204 seconds
#
# Revision: 0
# Processed by: cddbd v1.5.2PL0 Copyright (c) Steve Scherf et al.
# Submitted via: ExactAudioCopy v1.0b4
#
DISCID=03106a13
DTITLE=Various Artist - St. Louis Blues Society presents 19 In 19
DYEAR=2020
DGENRE=Blues
TTITLE0=Amanda Fish - Lower Your Defenses
TTITLE1=Brother Jeff and Big Rich - The Mirror
TTITLE2=Joe Metzka - Another Disaster
TTITLE3=Tru Born - Soon
TTITLE4=Eugene Johnson - They Don't Want You No More
TTITLE5=Jeremiah Johnson Band - Hot Blooded Love
TTITLE6=Carolyn Mason - Let's Party
TTITLE7=Ethan Leinwand - The New Old Santa Fe Blues
TTITLE8=The Bottoms Up Blues Gang - Know To Know
TTITLE9=Jake Curtis Blues Band - Blues Hand
TTITLE10=Larry Gwaltney Band - Real Good Woman
TTITLE11=Voodoo Blues Band - You Better Run
TTITLE12=Arkansas Bluesman - Hard Man Blues
TTITLE13=Skylar Rogers - Hard Headed Woman
TTITLE14=Anita Jackson - More Than Enough
TTITLE15=Tom Maloney - Party In The Basement
TTITLE16=Jon Bonham - South City Blues
TTITLE17=Mz. ShA - Wiggle Room
TTITLE18=Guiseppe and Rodrigo - Go Back To Bed
EXTD=
EXTT0=
EXTT1=
EXTT2=
EXTT3=
EXTT4=
EXTT5=
EXTT6=
EXTT7=
EXTT8=
EXTT9=
EXTT10=
EXTT11=
EXTT12=
EXTT13=
EXTT14=
EXTT15=
EXTT16=
EXTT17=
EXTT18=
PLAYORDER=
